ffmpeg started on 2025-05-28 at 20:48:24
Report written to "D:\Convert\FFMetrics\reports\ssim_report-6.txt"
Log level: 32
Command line:
ffmpeg -hide_banner -nostdin -i "G:\\\xc0\xed\xe8\xec\xe5\\\xce\xed\xe3\xee\xe8\xed\xe3\xe8\\!_36_\xce\xf1\xe5\xed\xfc_2024\\JamClub\\\xc8\xf1\xf2\xee\xf0\xe8\xff \xee \xf2\xee\xec, \xea\xe0\xea \xff \xef\xf0\xe8\xf8\xb8\xeb \xed\xe0 \xe2\xe5\xf7\xe5\xf0\xe8\xed\xea\xf3, \xe0 \xf2\xe0\xec \xed\xe5 \xe1\xfb\xeb\xee \xed\xe8 \xee\xe4\xed\xee\xe9 \xe6\xe5\xed\xf9\xe8\xed\xfb\\JamClub_Goukon_ni_Ittara_Onna_ga_Inakatta_Hanashi_09_1080p_HEVC.mkv" -i "G:\\\xc0\xed\xe8\xec\xe5\\\xce\xed\xe3\xee\xe8\xed\xe3\xe8\\!_36_\xce\xf1\xe5\xed\xfc_2024\\JamClub\\\xc8\xf1\xf2\xee\xf0\xe8\xff \xee \xf2\xee\xec, \xea\xe0\xea \xff \xef\xf0\xe8\xf8\xb8\xeb \xed\xe0 \xe2\xe5\xf7\xe5\xf0\xe8\xed\xea\xf3, \xe0 \xf2\xe0\xec \xed\xe5 \xe1\xfb\xeb\xee \xed\xe8 \xee\xe4\xed\xee\xe9 \xe6\xe5\xed\xf9\xe8\xed\xfb\\JamClub_Goukon_ni_Ittara_Onna_ga_Inakatta_Hanashi_09_1080p.mp4" -lavfi "[0:v]settb=AVTB,setpts=PTS-STARTPTS,format=pix_fmts=yuv420p10,fps=24000/1001,scale=1920:1080:flags=bicubic[main];[1:v]settb=AVTB,setpts=PTS-STARTPTS,format=pix_fmts=yuv420p,fps=24000/1001,scale=1920:1080:flags=bicubic[ref];[main][ref]ssim=eof_action=endall:stats_file='D\\:/Convert/FFMetrics/logs/ssim_logfile-6.txt'" -f null -
Input #0, matroska,webm, from 'G:\Аниме\Онгоинги\!_36_Осень_2024\JamClub\История о том, как я пришёл на вечеринку, а там не было ни одной женщины\JamClub_Goukon_ni_Ittara_Onna_ga_Inakatta_Hanashi_09_1080p_HEVC.mkv':
  Metadata:
    COMPATIBLE_BRANDS: isomiso2avc1mp41
    MAJOR_BRAND     : isom
    MINOR_VERSION   : 512
    ENCODER         : Lavf61.7.100
  Duration: 00:24:03.69, start: -0.001000, bitrate: 882 kb/s
  Stream #0:0: Video: hevc (Main 10), yuv420p10le(tv, bt709, progressive), 1920x1080 [SAR 1:1 DAR 16:9], 23.98 fps, 23.98 tbr, 1k tbn (default)
      Metadata:
        HANDLER_NAME    : VideoHandler
        VENDOR_ID       : [0][0][0][0]
        ENCODER         : Lavc61.19.100 libx265
        BPS             : 685428
        DURATION        : 00:24:03.650708333
        NUMBER_OF_FRAMES: 34613
        NUMBER_OF_BYTES : 123689809
        _STATISTICS_WRITING_APP: mkvpropedit v66.0.0 ('Josie') 64-bit
        _STATISTICS_WRITING_DATE_UTC: 2025-05-28 10:57:50
        _STATISTICS_TAGS: BPS DURATION NUMBER_OF_FRAMES NUMBER_OF_BYTES
  Stream #0:1(eng): Audio: aac (LC), 48000 Hz, stereo, fltp (default)
      Metadata:
        HANDLER_NAME    : SoundHandler
        VENDOR_ID       : [0][0][0][0]
        ENCODER         : Lavc61.19.100 aac
        BPS             : 193429
        DURATION        : 00:24:03.651000000
        NUMBER_OF_FRAMES: 67672
        NUMBER_OF_BYTES : 34905586
        _STATISTICS_WRITING_APP: mkvpropedit v66.0.0 ('Josie') 64-bit
        _STATISTICS_WRITING_DATE_UTC: 2025-05-28 10:57:50
        _STATISTICS_TAGS: BPS DURATION NUMBER_OF_FRAMES NUMBER_OF_BYTES
Input #1, mov,mp4,m4a,3gp,3g2,mj2, from 'G:\Аниме\Онгоинги\!_36_Осень_2024\JamClub\История о том, как я пришёл на вечеринку, а там не было ни одной женщины\JamClub_Goukon_ni_Ittara_Onna_ga_Inakatta_Hanashi_09_1080p.mp4':
  Metadata:
    major_brand     : isom
    minor_version   : 512
    compatible_brands: isomiso2avc1mp41
    encoder         : Lavf60.16.100
  Duration: 00:24:03.67, start: 0.000000, bitrate: 3197 kb/s
  Stream #1:0[0x1](und): Video: h264 (High) (avc1 / 0x31637661), yuv420p(progressive), 1920x1080 [SAR 1:1 DAR 16:9], 2999 kb/s, 23.98 fps, 23.98 tbr, 90k tbn (default)
      Metadata:
        handler_name    : VideoHandler
        vendor_id       : [0][0][0][0]
  Stream #1:1[0x2](eng): Audio: aac (LC) (mp4a / 0x6134706D), 48000 Hz, stereo, fltp, 191 kb/s (default)
      Metadata:
        handler_name    : SoundHandler
        vendor_id       : [0][0][0][0]
Stream mapping:
  Stream #0:0 (hevc) -> settb:default
  Stream #1:0 (h264) -> settb:default
  ssim:default -> Stream #0:0 (wrapped_avframe)
  Stream #0:1 -> #0:1 (aac (native) -> pcm_s16le (native))
Output #0, null, to 'pipe:':
  Metadata:
    COMPATIBLE_BRANDS: isomiso2avc1mp41
    MAJOR_BRAND     : isom
    MINOR_VERSION   : 512
    encoder         : Lavf61.7.100
  Stream #0:0: Video: wrapped_avframe, yuv420p10le(tv, bt709, progressive), 1920x1080 [SAR 1:1 DAR 16:9], q=2-31, 200 kb/s, 23.98 fps, 23.98 tbn
      Metadata:
        encoder         : Lavc61.19.100 wrapped_avframe
  Stream #0:1(eng): Audio: pcm_s16le, 48000 Hz, stereo, s16, 1536 kb/s (default)
      Metadata:
        HANDLER_NAME    : SoundHandler
        VENDOR_ID       : [0][0][0][0]
        _STATISTICS_TAGS: BPS DURATION NUMBER_OF_FRAMES NUMBER_OF_BYTES
        BPS             : 193429
        DURATION        : 00:24:03.651000000
        NUMBER_OF_FRAMES: 67672
        NUMBER_OF_BYTES : 34905586
        _STATISTICS_WRITING_APP: mkvpropedit v66.0.0 ('Josie') 64-bit
        _STATISTICS_WRITING_DATE_UTC: 2025-05-28 10:57:50
        encoder         : Lavc61.19.100 pcm_s16le
frame=  113 fps=0.0 q=-0.0 size=N/A time=00:00:04.71 bitrate=N/A speed= 9.2x    frame=  271 fps=265 q=-0.0 size=N/A time=00:00:11.30 bitrate=N/A speed=11.1x    frame=  477 fps=309 q=-0.0 size=N/A time=00:00:19.89 bitrate=N/A speed=12.9x    frame=  733 fps=357 q=-0.0 size=N/A time=00:00:30.57 bitrate=N/A speed=14.9x    frame= 1011 fps=393 q=-0.0 size=N/A time=00:00:42.16 bitrate=N/A speed=16.4x    frame= 1285 fps=416 q=-0.0 size=N/A time=00:00:53.59 bitrate=N/A speed=17.3x    frame= 1536 fps=427 q=-0.0 size=N/A time=00:01:04.06 bitrate=N/A speed=17.8x    frame= 1744 fps=423 q=-0.0 size=N/A time=00:01:12.73 bitrate=N/A speed=17.6x    frame= 1936 fps=418 q=-0.0 size=N/A time=00:01:20.74 bitrate=N/A speed=17.4x    frame= 2190 fps=426 q=-0.0 size=N/A time=00:01:31.34 bitrate=N/A speed=17.8x    frame= 2448 fps=432 q=-0.0 size=N/A time=00:01:42.10 bitrate=N/A speed=  18x    frame= 2675 fps=432 q=-0.0 size=N/A time=00:01:51.56 bitrate=N/A speed=  18x    frame= 2898 fps=432 q=-0.0 size=N/A time=00:02:00.87 bitrate=N/A speed=  18x    frame= 3126 fps=433 q=-0.0 size=N/A time=00:02:10.38 bitrate=N/A speed=18.1x    frame= 3388 fps=437 q=-0.0 size=N/A time=00:02:21.30 bitrate=N/A speed=18.2x    frame= 3621 fps=438 q=-0.0 size=N/A time=00:02:31.02 bitrate=N/A speed=18.3x    frame= 3885 fps=443 q=-0.0 size=N/A time=00:02:42.03 bitrate=N/A speed=18.5x    frame= 4144 fps=446 q=-0.0 size=N/A time=00:02:52.83 bitrate=N/A speed=18.6x    frame= 4428 fps=452 q=-0.0 size=N/A time=00:03:04.68 bitrate=N/A speed=18.8x    frame= 4659 fps=451 q=-0.0 size=N/A time=00:03:14.31 bitrate=N/A speed=18.8x    frame= 4919 fps=454 q=-0.0 size=N/A time=00:03:25.16 bitrate=N/A speed=18.9x    frame= 5196 fps=458 q=-0.0 size=N/A time=00:03:36.71 bitrate=N/A speed=19.1x    frame= 5448 fps=459 q=-0.0 size=N/A time=00:03:47.22 bitrate=N/A speed=19.1x    frame= 5721 fps=462 q=-0.0 size=N/A time=00:03:58.61 bitrate=N/A speed=19.3x    frame= 5980 fps=463 q=-0.0 size=N/A time=00:04:09.41 bitrate=N/A speed=19.3x    frame= 6245 fps=465 q=-0.0 size=N/A time=00:04:20.46 bitrate=N/A speed=19.4x    frame= 6510 fps=467 q=-0.0 size=N/A time=00:04:31.52 bitrate=N/A speed=19.5x    frame= 6761 fps=467 q=-0.0 size=N/A time=00:04:41.99 bitrate=N/A speed=19.5x    frame= 7017 fps=469 q=-0.0 size=N/A time=00:04:52.66 bitrate=N/A speed=19.5x    frame= 7293 fps=471 q=-0.0 size=N/A time=00:05:04.17 bitrate=N/A speed=19.6x    frame= 7549 fps=471 q=-0.0 size=N/A time=00:05:14.85 bitrate=N/A speed=19.7x    frame= 7824 fps=474 q=-0.0 size=N/A time=00:05:26.32 bitrate=N/A speed=19.8x    frame= 8103 fps=475 q=-0.0 size=N/A time=00:05:37.96 bitrate=N/A speed=19.8x    frame= 8371 fps=477 q=-0.0 size=N/A time=00:05:49.14 bitrate=N/A speed=19.9x    frame= 8606 fps=476 q=-0.0 size=N/A time=00:05:58.94 bitrate=N/A speed=19.9x    frame= 8858 fps=477 q=-0.0 size=N/A time=00:06:09.45 bitrate=N/A speed=19.9x    frame= 9136 fps=478 q=-0.0 size=N/A time=00:06:21.04 bitrate=N/A speed=19.9x    frame= 9395 fps=479 q=-0.0 size=N/A time=00:06:31.84 bitrate=N/A speed=  20x    frame= 9658 fps=480 q=-0.0 size=N/A time=00:06:42.81 bitrate=N/A speed=  20x    frame= 9942 fps=482 q=-0.0 size=N/A time=00:06:54.66 bitrate=N/A speed=20.1x    frame=10217 fps=483 q=-0.0 size=N/A time=00:07:06.13 bitrate=N/A speed=20.1x    frame=10441 fps=481 q=-0.0 size=N/A time=00:07:15.47 bitrate=N/A speed=20.1x    frame=10664 fps=480 q=-0.0 size=N/A time=00:07:24.77 bitrate=N/A speed=  20x    frame=10887 fps=479 q=-0.0 size=N/A time=00:07:34.07 bitrate=N/A speed=  20x    frame=11156 fps=480 q=-0.0 size=N/A time=00:07:45.29 bitrate=N/A speed=  20x    frame=11421 fps=481 q=-0.0 size=N/A time=00:07:56.35 bitrate=N/A speed=  20x    frame=11672 fps=481 q=-0.0 size=N/A time=00:08:06.86 bitrate=N/A speed=20.1x    frame=11949 fps=482 q=-0.0 size=N/A time=00:08:18.37 bitrate=N/A speed=20.1x    frame=12193 fps=482 q=-0.0 size=N/A time=00:08:28.54 bitrate=N/A speed=20.1x    frame=12461 fps=483 q=-0.0 size=N/A time=00:08:39.72 bitrate=N/A speed=20.1x    frame=12733 fps=484 q=-0.0 size=N/A time=00:08:51.07 bitrate=N/A speed=20.2x    frame=13011 fps=484 q=-0.0 size=N/A time=00:09:02.66 bitrate=N/A speed=20.2x    frame=13272 fps=485 q=-0.0 size=N/A time=00:09:13.55 bitrate=N/A speed=20.2x    frame=13532 fps=485 q=-0.0 size=N/A time=00:09:24.39 bitrate=N/A speed=20.2x    frame=13796 fps=486 q=-0.0 size=N/A time=00:09:35.40 bitrate=N/A speed=20.3x    frame=14068 fps=487 q=-0.0 size=N/A time=00:09:46.75 bitrate=N/A speed=20.3x    frame=14344 fps=488 q=-0.0 size=N/A time=00:09:58.26 bitrate=N/A speed=20.3x    frame=14529 fps=485 q=-0.0 size=N/A time=00:10:05.98 bitrate=N/A speed=20.2x    frame=14789 fps=486 q=-0.0 size=N/A time=00:10:16.82 bitrate=N/A speed=20.3x    frame=15057 fps=486 q=-0.0 size=N/A time=00:10:28.00 bitrate=N/A speed=20.3x    frame=15309 fps=486 q=-0.0 size=N/A time=00:10:38.51 bitrate=N/A speed=20.3x    frame=15496 fps=484 q=-0.0 size=N/A time=00:10:46.31 bitrate=N/A speed=20.2x    frame=15772 fps=485 q=-0.0 size=N/A time=00:10:57.82 bitrate=N/A speed=20.2x    frame=16065 fps=486 q=-0.0 size=N/A time=00:11:10.04 bitrate=N/A speed=20.3x    frame=16313 fps=486 q=-0.0 size=N/A time=00:11:20.38 bitrate=N/A speed=20.3x    frame=16543 fps=486 q=-0.0 size=N/A time=00:11:29.98 bitrate=N/A speed=20.3x    frame=16766 fps=485 q=-0.0 size=N/A time=00:11:39.28 bitrate=N/A speed=20.2x    frame=16993 fps=484 q=-0.0 size=N/A time=00:11:48.74 bitrate=N/A speed=20.2x    frame=17262 fps=485 q=-0.0 size=N/A time=00:11:59.96 bitrate=N/A speed=20.2x    frame=17543 fps=486 q=-0.0 size=N/A time=00:12:11.68 bitrate=N/A speed=20.3x    frame=17793 fps=485 q=-0.0 size=N/A time=00:12:22.11 bitrate=N/A speed=20.2x    frame=18055 fps=486 q=-0.0 size=N/A time=00:12:33.04 bitrate=N/A speed=20.3x    frame=18322 fps=486 q=-0.0 size=N/A time=00:12:44.18 bitrate=N/A speed=20.3x    frame=18576 fps=486 q=-0.0 size=N/A time=00:12:54.77 bitrate=N/A speed=20.3x    frame=18848 fps=487 q=-0.0 size=N/A time=00:13:06.11 bitrate=N/A speed=20.3x    frame=19096 fps=487 q=-0.0 size=N/A time=00:13:16.46 bitrate=N/A speed=20.3x    frame=19340 fps=487 q=-0.0 size=N/A time=00:13:26.63 bitrate=N/A speed=20.3x    frame=19610 fps=487 q=-0.0 size=N/A time=00:13:37.90 bitrate=N/A speed=20.3x    frame=19869 fps=487 q=-0.0 size=N/A time=00:13:48.70 bitrate=N/A speed=20.3x    frame=20139 fps=488 q=-0.0 size=N/A time=00:13:59.96 bitrate=N/A speed=20.3x    frame=20366 fps=487 q=-0.0 size=N/A time=00:14:09.43 bitrate=N/A speed=20.3x    frame=20595 fps=487 q=-0.0 size=N/A time=00:14:18.98 bitrate=N/A speed=20.3x    frame=20847 fps=487 q=-0.0 size=N/A time=00:14:29.49 bitrate=N/A speed=20.3x    frame=21121 fps=487 q=-0.0 size=N/A time=00:14:40.92 bitrate=N/A speed=20.3x    frame=21353 fps=487 q=-0.0 size=N/A time=00:14:50.59 bitrate=N/A speed=20.3x    frame=21592 fps=486 q=-0.0 size=N/A time=00:15:00.56 bitrate=N/A speed=20.3x    frame=21859 fps=487 q=-0.0 size=N/A time=00:15:11.70 bitrate=N/A speed=20.3x    frame=22114 fps=487 q=-0.0 size=N/A time=00:15:22.33 bitrate=N/A speed=20.3x    frame=22359 fps=487 q=-0.0 size=N/A time=00:15:32.55 bitrate=N/A speed=20.3x    frame=22626 fps=487 q=-0.0 size=N/A time=00:15:43.69 bitrate=N/A speed=20.3x    frame=22878 fps=487 q=-0.0 size=N/A time=00:15:54.20 bitrate=N/A speed=20.3x    frame=23136 fps=487 q=-0.0 size=N/A time=00:16:04.96 bitrate=N/A speed=20.3x    frame=23394 fps=488 q=-0.0 size=N/A time=00:16:15.72 bitrate=N/A speed=20.3x    frame=23659 fps=488 q=-0.0 size=N/A time=00:16:26.77 bitrate=N/A speed=20.3x    frame=23893 fps=487 q=-0.0 size=N/A time=00:16:36.53 bitrate=N/A speed=20.3x    frame=24150 fps=488 q=-0.0 size=N/A time=00:16:47.25 bitrate=N/A speed=20.3x    frame=24390 fps=487 q=-0.0 size=N/A time=00:16:57.26 bitrate=N/A speed=20.3x    frame=24654 fps=488 q=-0.0 size=N/A time=00:17:08.27 bitrate=N/A speed=20.3x    frame=24923 fps=488 q=-0.0 size=N/A time=00:17:19.49 bitrate=N/A speed=20.3x    frame=25159 fps=488 q=-0.0 size=N/A time=00:17:29.33 bitrate=N/A speed=20.3x    frame=25437 fps=488 q=-0.0 size=N/A time=00:17:40.93 bitrate=N/A speed=20.4x    frame=25694 fps=488 q=-0.0 size=N/A time=00:17:51.65 bitrate=N/A speed=20.4x    frame=25946 fps=488 q=-0.0 size=N/A time=00:18:02.16 bitrate=N/A speed=20.4x    frame=26174 fps=488 q=-0.0 size=N/A time=00:18:11.67 bitrate=N/A speed=20.3x    frame=26448 fps=488 q=-0.0 size=N/A time=00:18:23.10 bitrate=N/A speed=20.4x    frame=26692 fps=488 q=-0.0 size=N/A time=00:18:33.27 bitrate=N/A speed=20.4x    frame=26950 fps=488 q=-0.0 size=N/A time=00:18:44.03 bitrate=N/A speed=20.4x    frame=27211 fps=488 q=-0.0 size=N/A time=00:18:54.92 bitrate=N/A speed=20.4x    frame=27488 fps=489 q=-0.0 size=N/A time=00:19:06.47 bitrate=N/A speed=20.4x    frame=27762 fps=489 q=-0.0 size=N/A time=00:19:17.90 bitrate=N/A speed=20.4x    frame=28028 fps=489 q=-0.0 size=N/A time=00:19:29.00 bitrate=N/A speed=20.4x    frame=28316 fps=490 q=-0.0 size=N/A time=00:19:41.01 bitrate=N/A speed=20.4x    frame=28584 fps=490 q=-0.0 size=N/A time=00:19:52.19 bitrate=N/A speed=20.4x    frame=28855 fps=491 q=-0.0 size=N/A time=00:20:03.49 bitrate=N/A speed=20.5x    frame=29119 fps=491 q=-0.0 size=N/A time=00:20:14.50 bitrate=N/A speed=20.5x    frame=29407 fps=491 q=-0.0 size=N/A time=00:20:26.51 bitrate=N/A speed=20.5x    frame=29657 fps=491 q=-0.0 size=N/A time=00:20:36.94 bitrate=N/A speed=20.5x    frame=29946 fps=492 q=-0.0 size=N/A time=00:20:48.99 bitrate=N/A speed=20.5x    frame=30209 fps=492 q=-0.0 size=N/A time=00:20:59.96 bitrate=N/A speed=20.5x    frame=30484 fps=492 q=-0.0 size=N/A time=00:21:11.43 bitrate=N/A speed=20.5x    frame=30745 fps=493 q=-0.0 size=N/A time=00:21:22.32 bitrate=N/A speed=20.5x    frame=31011 fps=493 q=-0.0 size=N/A time=00:21:33.41 bitrate=N/A speed=20.5x    frame=31258 fps=493 q=-0.0 size=N/A time=00:21:43.71 bitrate=N/A speed=20.5x    frame=31528 fps=493 q=-0.0 size=N/A time=00:21:54.98 bitrate=N/A speed=20.6x    frame=31801 fps=493 q=-0.0 size=N/A time=00:22:06.36 bitrate=N/A speed=20.6x    frame=32062 fps=493 q=-0.0 size=N/A time=00:22:17.25 bitrate=N/A speed=20.6x    frame=32302 fps=493 q=-0.0 size=N/A time=00:22:27.26 bitrate=N/A speed=20.6x    frame=32585 fps=493 q=-0.0 size=N/A time=00:22:39.06 bitrate=N/A speed=20.6x    frame=32814 fps=493 q=-0.0 size=N/A time=00:22:48.61 bitrate=N/A speed=20.6x    frame=33067 fps=493 q=-0.0 size=N/A time=00:22:59.16 bitrate=N/A speed=20.6x    frame=33342 fps=493 q=-0.0 size=N/A time=00:23:10.63 bitrate=N/A speed=20.6x    frame=33573 fps=493 q=-0.0 size=N/A time=00:23:20.27 bitrate=N/A speed=20.6x    frame=33786 fps=492 q=-0.0 size=N/A time=00:23:29.15 bitrate=N/A speed=20.5x    frame=33992 fps=492 q=-0.0 size=N/A time=00:23:37.74 bitrate=N/A speed=20.5x    frame=34254 fps=492 q=-0.0 size=N/A time=00:23:48.67 bitrate=N/A speed=20.5x    frame=34504 fps=492 q=-0.0 size=N/A time=00:23:59.10 bitrate=N/A speed=20.5x    [Parsed_ssim_10 @ 000002a0c3843b40] SSIM Y:0.996020 (24.001079) U:0.995168 (23.158821) V:0.995051 (23.054578) All:0.995716 (23.681926)
[out#0/null @ 000002a0bd298ec0] video:14873KiB audio:270688KiB subtitle:0KiB other streams:0KiB global headers:0KiB muxing overhead: unknown
frame=34613 fps=492 q=-0.0 Lsize=N/A time=00:24:03.65 bitrate=N/A speed=20.5x    
